<?xml version="1.0" encoding="UTF-8" standalone="no"?>
<!-- Created with Inkscape (http://www.inkscape.org/) -->

<svg
   xmlns:dc="http://purl.org/dc/elements/1.1/"
   xmlns:cc="http://creativecommons.org/ns#"
   xmlns:rdf="http://www.w3.org/1999/02/22-rdf-syntax-ns#"
   xmlns:svg="http://www.w3.org/2000/svg"
   xmlns="http://www.w3.org/2000/svg"
   xmlns:sodipodi="http://sodipodi.sourceforge.net/DTD/sodipodi-0.dtd"
   xmlns:inkscape="http://www.inkscape.org/namespaces/inkscape"
   width="206.94658mm"
   height="206.94658mm"
   viewBox="0 0 206.94658 206.94658"
   version="1.1"
   id="svg4572"
   inkscape:version="0.92.1 r15371"
   sodipodi:docname="A3_HanferlaubnisZone.svg"
   inkscape:export-filename="C:\Users\Ben0bi\Desktop\cannabislegal_hanferlaubnis_link.png"
   inkscape:export-xdpi="96"
   inkscape:export-ydpi="96">
  <defs
     id="defs4566" />
  <sodipodi:namedview
     id="base"
     pagecolor="#ffffff"
     bordercolor="#666666"
     borderopacity="1.0"
     inkscape:pageopacity="0.0"
     inkscape:pageshadow="2"
     inkscape:zoom="1.4899303"
     inkscape:cx="-66.089693"
     inkscape:cy="423.31637"
     inkscape:document-units="mm"
     inkscape:current-layer="layer2"
     showgrid="false"
     inkscape:window-width="1366"
     inkscape:window-height="689"
     inkscape:window-x="-9"
     inkscape:window-y="-9"
     inkscape:window-maximized="1"
     fit-margin-top="0"
     fit-margin-left="0"
     fit-margin-right="0"
     fit-margin-bottom="0" />
  <metadata
     id="metadata4569">
    <rdf:RDF>
      <cc:Work
         rdf:about="">
        <dc:format>image/svg+xml</dc:format>
        <dc:type
           rdf:resource="http://purl.org/dc/dcmitype/StillImage" />
        <dc:title />
      </cc:Work>
    </rdf:RDF>
  </metadata>
  <g
     inkscape:groupmode="layer"
     id="layer3"
     inkscape:label="Zone_Schild"
     transform="translate(-1.5267105,-2.0562925)"
     sodipodi:insensitive="true">
    <g
       id="g4557"
       transform="translate(-0.00885391)">
      <rect
         style="opacity:1;fill:#ffffff;fill-opacity:1;stroke:#ffffff;stroke-width:15;stroke-linecap:round;stroke-linejoin:round;stroke-miterlimit:4;stroke-dasharray:none;stroke-opacity:1"
         id="rect4549"
         width="191.94658"
         height="191.94658"
         x="9.0355644"
         y="9.5562925"
         rx="10"
         ry="10" />
      <rect
         ry="10"
         rx="10"
         y="9.5562925"
         x="9.0355644"
         height="191.94658"
         width="191.94658"
         id="rect4518"
         style="opacity:1;fill:#ffffff;fill-opacity:1;stroke:#000000;stroke-width:5;stroke-linecap:round;stroke-linejoin:round;stroke-miterlimit:4;stroke-dasharray:none;stroke-opacity:1" />
      <path
         inkscape:connector-curvature="0"
         id="path4539"
         d="m 76.311143,181.67807 0.197355,3.94713 -18.025218,-0.0658 -0.06578,-3.48662 12.828164,-21.11714 -12.499236,-0.0658 -0.06579,-3.6182 17.696291,0.13157 0.131569,3.35506 -13.091308,20.98557 z"
         style="fill:#000000;stroke:#000000;stroke-width:0.26458332px;stroke-linecap:butt;stroke-linejoin:miter;stroke-opacity:1" />
      <path
         sodipodi:nodetypes="cccccc"
         inkscape:connector-curvature="0"
         id="path4543"
         d="m 82.396866,166.43344 v 10.37574 c 0.98981,10.1791 15.594005,10.14836 16.522974,-0.30225 l 0.054,-10.07349 c -1.585287,-11.07951 -15.711175,-8.90607 -16.576965,0 z"
         style="fill:none;stroke:#000000;stroke-width:4;stroke-linecap:butt;stroke-linejoin:miter;stroke-miterlimit:4;stroke-dasharray:none;stroke-opacity:1" />
      <path
         inkscape:connector-curvature="0"
         id="path4545"
         d="m 110.78273,185.6252 -4.34184,-0.0658 0.0658,-28.09039 4.27606,-0.0658 12.69659,19.99879 0.13157,-20.13036 4.27606,0.0658 v 28.61668 l -3.88134,-0.13157 -13.09131,-20.26193 z"
         style="fill:#000000;stroke:#000000;stroke-width:0.26458332px;stroke-linecap:butt;stroke-linejoin:miter;stroke-opacity:1" />
      <path
         inkscape:connector-curvature="0"
         id="path4547"
         d="m 152.88543,181.61229 0.0658,4.21027 h -18.28836 v -28.61668 l 18.22258,0.13157 -0.0658,3.94713 -14.14388,0.19735 v 8.09162 l 12.03875,-0.0658 0.19735,3.55242 -11.97295,0.0658 v 8.6179 z"
         style="fill:#000000;stroke:#000000;stroke-width:0.26458332px;stroke-linecap:butt;stroke-linejoin:miter;stroke-opacity:1" />
    </g>
  </g>
  <g
     inkscape:groupmode="layer"
     id="layer2"
     inkscape:label="Hanferlaubnis"
     transform="translate(-1.5267105,-2.0562925)"
     sodipodi:insensitive="true"
     style="display:inline">
    <g
       id="g4504"
       inkscape:export-filename="C:\Users\Ben0bi\Desktop\RUNPIXI.js\testImage.png"
       inkscape:export-xdpi="26.290001"
       inkscape:export-ydpi="26.290001">
      <circle
         r="60.331211"
         cy="84.541023"
         cx="105"
         id="path4538"
         style="opacity:1;fill:#000080;fill-opacity:1;stroke:#ffffff;stroke-width:3;stroke-linecap:round;stroke-linejoin:round;stroke-miterlimit:4;stroke-dasharray:none;stroke-opacity:1" />
      <path
         style="fill:#ffffff;fill-opacity:1;stroke:#ffffff;stroke-width:0.45470205;stroke-linecap:round;stroke-linejoin:round;stroke-miterlimit:4;stroke-dasharray:none;stroke-opacity:1"
         d="m 103.46614,106.14071 -2.37828,3.98064 -0.37807,-1.06414 -1.873885,2.86546 -0.388333,-0.56059 c -1.609354,0.78485 -2.597629,2.08727 -3.591745,3.3848 -0.420659,-1.18011 0.434301,-2.82189 2.806277,-4.39168 0.300876,-0.19913 -1.522713,-10e-4 -1.254525,-0.26162 0.60787,-0.59027 1.637316,-1.27519 2.615783,-1.94988 0.42325,-0.29185 -0.760073,-0.30575 -0.394149,-0.58528 0.423233,-0.32332 4.191837,-2.06975 4.428007,-2.35209 -1.55944,0.83608 -3.810316,1.50629 -3.585899,0.66841 -0.936584,0.65254 -1.898544,1.55904 -2.787272,1.73303 l 0.179941,-1.2226 c -0.943594,0.88815 -2.112659,1.42557 -3.529407,1.57768 l 0.45302,-1.09607 c -1.314483,0.43643 -2.306832,1.70964 -3.963149,1.52615 l 0.43032,-1.05258 c -1.351426,0.157 -2.718638,0.85824 -4.117319,0.63743 l 0.568944,-1.00725 c -1.173903,0.23197 -2.030356,0.74615 -3.624336,0.60472 l 0.394699,-1.34943 c -1.453211,0.22484 -2.756198,0.67505 -4.39582,0.6203 l 0.763917,-1.32502 -3.497311,0.40345 c -2.151221,0.34317 -3.441837,1.03059 -5.126569,1.56036 2.261482,-3.08025 5.19625,-4.2325 8.243045,-5.06387 0.50158,-0.13692 -1.1866,-0.49049 -0.696895,-0.66769 0.942006,-0.34085 2.960969,-0.32853 4.535473,-0.10535 0.615598,0.0872 -1.241594,-0.9719 -0.700018,-1.17814 0.610382,-0.23243 2.967815,0.38437 3.986742,0.51556 0.298954,0.0384 -0.491644,-0.98157 -0.369355,-1.038454 1.278193,-0.312097 3.509768,0.765514 4.289779,1.126224 l -0.365941,-1.125143 c 1.229515,0.311533 2.652887,0.527213 4.226105,1.722513 l -0.174211,-1.1733 c 1.071535,0.32627 2.002113,0.37059 3.621154,1.79182 l -0.08373,-0.85462 c 0.652781,0.14859 1.270164,0.75736 1.870525,1.58753 l -0.115649,-0.96366 c 0.499211,0.0137 1.603567,0.78763 2.199997,1.29211 0.46732,0.39528 0.61328,-0.10999 1.17816,0.13469 -0.2861,-0.44718 -2.05373,-2.14897 -5.508994,-2.98061 l 1.497806,-0.48794 C 96.44083,98.920369 94.094179,99.165514 93.184947,98.961807 l 2.704568,-0.833289 c -2.455769,-0.145161 -4.824166,-0.330937 -5.601449,-1.255423 l 2.91361,-0.607517 c -3.178731,-0.387234 -4.55037,-0.575618 -5.60509,-1.449161 l 2.700003,-0.625876 C 86.766574,93.759106 85.682204,92.998415 84.99092,92.436729 l 3.077526,-0.787749 c -2.97116,-0.510382 -4.842165,-1.502096 -6.163049,-2.425038 l 2.652766,-0.624092 c -2.55896,-0.508974 -2.946109,-0.85043 -4.762961,-2.066406 l 2.900227,-0.653776 c -6.105448,-1.893654 -5.846491,-2.819033 -5.846491,-2.819033 l 2.155906,-0.561891 c -4.260867,-1.702456 -4.153026,-2.230837 -4.153026,-2.230837 0.262732,-0.341713 1.127009,-0.597496 2.242042,-0.817469 -2.919153,-0.880235 -3.586364,-1.216766 -5.303731,-2.648991 l 2.108822,-0.330303 C 70.28232,75.030168 70.231668,74.93468 68.957232,73.814603 l 2.249626,-0.17814 c -7.37678,-3.84817 -6.370795,-3.837583 -9.55616,-5.756391 2.090791,0.117708 4.246892,-0.174331 9.744115,3.467283 l -0.24197,-1.147788 c 1.383341,0.990496 2.445713,2.045199 3.533447,3.09484 l -0.435588,-2.409595 c 1.727611,1.207431 2.512547,2.082141 3.218879,2.929122 l 0.03792,-2.090926 c 2.006867,1.216199 2.699901,2.563799 3.528283,3.897843 l -0.187475,-1.98341 c 1.851513,0.9209 3.222122,2.683446 4.163647,4.27166 l 0.05594,-1.896451 c 1.422205,1.154823 2.432931,3.10414 3.075227,4.738922 l 0.506144,-1.22066 c 1.745198,1.112853 1.88178,2.740446 2.149419,4.326104 l 0.669631,-1.919718 c 1.425499,1.209902 2.162014,3.167215 3.097962,4.812275 l 0.685348,-1.181093 c 1.525956,2.038661 1.623468,3.752699 1.850836,5.496233 0.242382,-0.682225 0.43382,-1.486738 0.968704,-1.466972 1.018756,1.017332 1.019357,3.169445 1.277336,5.034702 l 0.666227,-0.944802 c 0.62861,1.646416 0.59717,3.292849 0.41982,4.939265 l 0.70295,-1.445472 c 0.43599,3.772796 1.5619,3.405946 2.36143,4.997316 0,0 -0.78224,-3.146884 -2.38859,-7.357855 -0.29305,-0.768223 2.57943,2.533755 2.12526,1.754224 -3.01383,-5.172914 -5.230442,-8.210684 -3.81383,-7.036815 0.565409,0.468549 1.84171,1.380167 1.72392,0.664757 -0.18286,-1.110571 -3.973803,-4.105256 -3.447807,-5.16605 0,0 3.013557,1.503262 2.585017,0.984198 -2.86441,-3.46948 -3.351628,-5.764593 -3.351628,-5.764593 l 2.192985,0.405457 c 0,0 -2.874345,-4.317525 -2.435109,-4.637446 0.436531,-0.317931 2.729362,1.464209 2.443603,1.004788 -1.05472,-1.695678 -2.355237,-5.261332 -2.366973,-6.086882 0,0 1.86282,1.100431 1.858599,1.077919 -1.731574,-3.06579 -1.386018,-3.676807 -1.93468,-5.34462 l 1.876444,1.087321 C 97.316273,64.953232 97.42336,64.081799 96.925075,62.345558 l 1.970439,0.502163 c -1.506162,-2.014897 -1.349831,-2.921435 -1.885127,-4.289076 l 2.380014,0.974521 c -1.628005,-2.578659 -1.585572,-3.626618 -2.175912,-5.169997 0.579976,0.09386 1.367177,0.550378 2.431472,1.491817 -1.326461,-2.832004 -1.244185,-3.727012 -1.69851,-5.359856 l 2.315279,1.464707 C 99.112947,48.801579 99.451571,48.80616 99.163788,47.479631 l 1.747682,0.961086 c -1.38284,-1.921605 -1.19914,-2.627234 -1.476611,-3.690825 l 1.438541,0.336977 c -0.84012,-1.213025 -0.987957,-1.993362 -0.8633,-2.603384 l 1.67349,1.116645 c -1.846586,-2.49398 -1.57016,-5.623944 -2.05997,-8.027087 3.36073,0.72833 3.71222,5.819912 3.58533,7.616757 l 1.22955,-0.640804 c 0,0 -0.54559,3.015568 -0.1944,3.662188 0.21005,0.386806 0.99844,-1.35901 1.17939,-0.96891 0.33471,0.721552 -0.23456,3.677871 -0.23456,3.677871 l 1.57518,-1.181694 c 0.61105,-0.366627 -0.74776,5.031922 -1.19455,5.68273 l 2.38769,-2.081609 c 0.32898,0.657945 -1.01157,6.397349 -1.12803,5.749441 l 1.89268,-1.564192 c 0,0 0.23219,3.170852 -0.88394,5.761384 l 2.01562,-0.959816 c 0.49349,1.64573 -0.85163,4.026911 -1.43779,6.104522 l 1.83051,-0.805252 c 0.16301,1.757981 -0.94264,3.674507 -1.6768,5.54462 0.79959,-0.875773 1.34943,-0.877352 1.9141,-0.930835 -0.0137,1.789741 -1.42417,3.998701 -2.59147,6.1346 1.29207,-1.254858 2.16997,-1.474299 2.98369,-1.53329 l -2.60807,5.166119 c 0.84828,-0.968412 1.6128,-1.601752 2.21935,-1.603193 -0.0298,1.588883 -1.11583,3.811381 -2.33998,6.116806 l 1.8203,-1.133134 c 0.012,1.038745 -0.94574,2.870731 -2.25964,4.994207 1.19893,-0.938316 1.87795,-0.836772 2.60964,-0.840615 -0.66247,1.749848 -1.97879,3.336243 -3.08617,4.974869 l 1.46714,-0.321397 c -0.57754,1.748201 -1.87539,3.208275 -3.02643,4.727083 l 1.60553,-0.724778 c -1.66543,2.021623 -1.61839,3.727562 -1.52919,5.487039 0.42289,-0.55767 0.84578,-1.17804 1.26869,-2.653713 l 0.27799,0.797479 c 0.25906,-1.142504 0.0635,-2.585556 0.85623,-3.280839 l 0.57469,1.367092 c 0.43148,-2.010264 1.1134,-3.719738 1.69731,-5.120306 l 0.39343,1.427078 c 0.90209,-3.965156 1.70666,-3.436552 2.55,-4.695425 l 0.35475,2.166218 c 1.71488,-4.710902 2.18981,-4.358671 2.94385,-5.146078 l 0.42373,2.369959 c 0.47562,-2.1842 1.77342,-3.637565 2.98626,-5.16648 l 0.54766,1.187614 c 0.92743,-2.126599 1.8713,-3.241151 2.79972,-3.991187 l 0.55123,1.769341 c 1.43065,-2.524558 3.07727,-3.418708 3.07727,-3.418708 l 0.16936,1.887906 c 0.97023,-1.213145 1.89518,-2.579482 3.32617,-3.639041 0.37183,0.76402 0.26486,1.372668 0.41592,1.954001 0,0 1.37439,-3.225554 2.97423,-3.579432 l 0.18369,1.838455 c 0,0 2.11563,-2.537375 3.34141,-2.925022 0.44898,-0.142072 -0.5661,1.672206 -0.15975,1.395147 2.1459,-1.463215 7.41482,-3.395166 11.04717,-3.619806 -3.37374,2.063489 -5.92364,2.777938 -9.60158,6.360767 l 0.8186,0.194406 -3.38473,2.245354 0.90726,0.512715 c -0.28909,0.633288 -1.73751,1.177421 -3.0952,1.72852 l 0.79962,0.495059 c -0.62524,0.737956 -2.23054,1.258118 -3.56754,1.837888 l 1.23,0.635314 c -0.44079,0.662303 -2.84061,1.337184 -4.37311,1.921502 l 1.27571,0.637115 c -0.47981,0.778707 -2.4714,1.233461 -4.06071,1.774419 l 1.84677,0.583769 c -1.39437,0.995094 -2.82715,1.142023 -4.37263,1.683753 l 1.49377,0.805783 c -1.29878,0.960743 -2.94026,1.373149 -4.65991,1.660504 l 1.31213,0.653518 c -0.93747,0.636978 -2.44466,1.060314 -4.05405,1.445335 l 1.22387,0.418378 c -0.66732,0.578037 -2.71394,0.97217 -4.60874,1.386549 l 0.88681,0.579809 c -0.68849,0.27328 -1.91609,0.47471 -3.87846,0.57815 l 0.73791,0.44719 c -3.35027,0.47927 -4.84267,2.29161 -5.30434,2.81607 0,0 2.2206,-0.45028 3.34731,-1.44939 l 0.30115,0.84371 c 0.99417,-0.9964 1.59162,-1.47899 2.56259,-1.93939 l -0.17554,1.17231 c 2.0451,-1.13428 2.56567,-1.43768 3.98395,-1.68174 l -0.68267,1.06678 c 2.86479,-1.21727 3.90337,-1.39968 4.23061,-1.179 l -0.40027,0.91891 c 3.41991,-0.86807 3.49647,-0.62169 4.55788,-0.70359 l -0.53675,1.03341 c 3.00705,-0.66333 3.41007,-0.34309 4.51773,-0.289 l -0.89412,0.91984 c 1.66799,-0.0997 2.88776,0.0247 3.5364,0.43478 l -0.76124,0.61887 c 1.51675,-0.2272 2.44686,0.20537 3.14776,0.3861 l -0.60963,0.79819 c 1.42881,-0.14293 5.48558,4.10086 4.68616,3.9286 -0.25824,-0.1105 -4.19204,-2.70872 -5.3377,-2.38076 -0.43,0.12302 0.24351,0.88231 -0.16044,0.80144 -1.00717,-0.20165 -1.1751,-0.59443 -1.96124,-0.75283 -0.52397,-0.10553 0.94252,0.88111 0.44358,0.90442 -1.2453,0.0582 -3.12289,-0.60616 -3.1493,-0.62728 l 0.90424,1.08906 c -1.8389,0.11256 -3.6608,0.20125 -4.9069,-0.51613 l 0.1821,1.08895 c -2.00172,0.0674 -2.64547,-0.64129 -3.89563,-1.0034 0,0 0.47646,1.24672 0.24393,1.21896 -0.91656,-0.10947 -3.92449,-1.7709 -3.92449,-1.7709 l 0.59319,1.47433 c -2.08661,-0.53672 -2.83503,-1.95916 -2.83503,-1.95916 l 0.0865,0.71271 c -0.0721,0.22825 -2.34745,-0.91218 -3.19491,-1.58442 -0.211,-0.1673 0.024,0.43749 -0.22625,0.36788 -0.4975,-0.1383 -1.03109,-0.77521 -1.45158,-0.88401 -1.52173,-0.39374 -1.73434,-0.20582 -1.73434,-0.20582 l 3.04608,1.46885 -1.03106,0.39176 c 1.86646,-0.0154 2.86831,0.34509 3.4614,0.8821 l -0.81177,0.38684 c 2.16563,0.45992 3.66349,1.17617 4.07945,1.58112 l -1.13009,0.42378 c 2.06391,0.80081 2.34567,1.36077 2.9037,1.95808 l -1.97236,-0.051 c 2.36688,1.4004 2.67047,3.11411 3.45999,5.60878 -0.81785,-1.1654 -2.92511,-3.8632 -3.86909,-4.53946 l 0.19772,1.58487 c -0.66132,-0.53202 -1.18475,-1.43482 -1.70103,-2.35683 l -0.0697,1.33063 c -0.84592,-0.17692 -1.8461,-1.98279 -2.76528,-2.97351 l -0.21297,1.37128 c -1.07483,-1.0084 -1.76545,-2.02971 -2.38892,-3.20128 l -0.22109,0.89777 c -0.43729,0.0155 -1.90554,-2.65956 -2.31587,-4.17092 -1.20812,2.58894 -1.62688,8.53812 -0.0391,12.98138 -0.53253,1.06016 -1.40729,0.40927 -2.3418,-0.5404 -0.69361,-3.69843 -0.28634,-7.65089 0.78012,-11.75548 z"
         id="path4536"
         inkscape:connector-curvature="0"
         sodipodi:nodetypes="ccccccssssccccccccccccccccssssscccccccccscccccccccccccccccccccccccccccccccccccccccccccccssssssccsssccccccccccccccccccccsscccccccccccccccccccccccccccccccccccccccccccccsscccccccccccccccccccccccccccccccccccccccccsssscccccsccccsssccccccccccccccccccccccc" />
    </g>
  </g>
</svg>
