<?xml version="1.0" encoding="UTF-8" standalone="no"?>
<!-- Created with Inkscape (http://www.inkscape.org/) -->

<svg
   xmlns:dc="http://purl.org/dc/elements/1.1/"
   xmlns:cc="http://creativecommons.org/ns#"
   xmlns:rdf="http://www.w3.org/1999/02/22-rdf-syntax-ns#"
   xmlns:svg="http://www.w3.org/2000/svg"
   xmlns="http://www.w3.org/2000/svg"
   xmlns:sodipodi="http://sodipodi.sourceforge.net/DTD/sodipodi-0.dtd"
   xmlns:inkscape="http://www.inkscape.org/namespaces/inkscape"
   width="210mm"
   height="297mm"
   viewBox="0 0 210 297"
   version="1.1"
   id="svg8"
   inkscape:version="0.92.3 (2405546, 2018-03-11)"
   sodipodi:docname="PERMIT_ANKH_MORPORK.svg">
  <defs
     id="defs2" />
  <sodipodi:namedview
     id="base"
     pagecolor="#ffffff"
     bordercolor="#666666"
     borderopacity="1.0"
     inkscape:pageopacity="0.0"
     inkscape:pageshadow="2"
     inkscape:zoom="0.7"
     inkscape:cx="271.00861"
     inkscape:cy="623.91912"
     inkscape:document-units="mm"
     inkscape:current-layer="layer2"
     showgrid="false"
     inkscape:window-width="1920"
     inkscape:window-height="1018"
     inkscape:window-x="1432"
     inkscape:window-y="-8"
     inkscape:window-maximized="1" />
  <metadata
     id="metadata5">
    <rdf:RDF>
      <cc:Work
         rdf:about="">
        <dc:format>image/svg+xml</dc:format>
        <dc:type
           rdf:resource="http://purl.org/dc/dcmitype/StillImage" />
        <dc:title />
      </cc:Work>
    </rdf:RDF>
  </metadata>
  <g
     inkscape:groupmode="layer"
     id="layer2"
     inkscape:label="ANKH"
     style="display:inline">
    <g
       id="g882"
       transform="translate(1.9872645,-13.455954)">
      <path
         style="opacity:1;fill:#0000ff;stroke:#00ffff;stroke-width:0.08038724;stroke-linecap:round;stroke-linejoin:round;stroke-miterlimit:4;stroke-dasharray:none;stroke-opacity:1"
         d="m 22.194781,246.97661 c 0.241784,-11.35895 8.84897,-12.53634 10.617238,-12.56615 8.102251,0.25621 12.980252,7.36488 14.799416,9.21659 0.52536,-3.44496 -0.949334,-7.50742 -2.192593,-11.36851 3.090016,-1.27467 6.214617,-1.0964 9.358678,-0.1015 -0.955357,3.70881 -2.195174,7.4053 -1.969178,11.16548 l 26.614104,-4.63209 c -1.922089,7.05674 -1.0599,10.76194 -0.297448,15.33124 l -26.255746,-4.04049 c 0.271375,2.61979 -0.07678,3.91802 2.497028,11.44967 -3.361314,1.00841 -6.476947,0.75386 -9.460105,-0.18269 1.453588,-4.61211 1.963269,-8.33946 1.684839,-11.32783 -4.364093,4.76047 -6.300924,8.43333 -14.474411,9.82561 -3.59298,0.42854 -10.287108,-2.2106 -10.921831,-12.76933 z m 7.013315,-0.0451 c -8.93e-4,0.35366 0.01489,0.70794 0.04709,1.05776 0.03248,0.35005 0.08174,0.69527 0.147597,1.03155 0.06586,0.33651 0.148363,0.66328 0.247602,0.97643 0.09924,0.31305 0.215215,0.61235 0.347744,0.89275 0.132575,0.28057 0.28166,0.54194 0.44748,0.77998 0.08291,0.11908 0.170061,0.23231 0.261271,0.33876 0.09121,0.10646 0.18657,0.2066 0.28608,0.29953 0.09951,0.0929 0.20308,0.17908 0.310891,0.25712 0.10781,0.078 0.21977,0.14886 0.335835,0.21111 0.116065,0.0622 0.23628,0.11638 0.360646,0.16103 0.124365,0.0451 0.252835,0.0812 0.385455,0.10781 0.265871,-0.0271 0.523872,-0.0613 0.77451,-0.1069 0.250625,-0.0456 0.493874,-0.1015 0.730394,-0.16646 0.236505,-0.065 0.466376,-0.13893 0.689886,-0.22148 0.223514,-0.0825 0.440758,-0.17322 0.652364,-0.27201 0.211606,-0.0988 0.417483,-0.20479 0.618289,-0.31801 0.200825,-0.11323 0.396688,-0.23322 0.587832,-0.35952 0.191126,-0.12631 0.377606,-0.25848 0.560202,-0.39651 0.182556,-0.13803 0.361232,-0.28103 0.536331,-0.42898 0.350226,-0.29592 0.686616,-0.61051 1.013633,-0.93782 0.326994,-0.32749 0.644578,-0.66725 0.957264,-1.01391 0.625376,-0.69341 1.230926,-1.41362 1.852206,-2.11254 -0.341745,-0.4168 -0.685858,-0.81886 -1.032786,-1.20346 -0.346932,-0.38478 -0.696557,-0.75165 -1.049588,-1.0984 -0.353022,-0.34688 -0.709468,-0.67325 -1.069527,-0.97642 -0.360059,-0.30314 -0.723803,-0.58317 -1.091824,-0.837 -0.367998,-0.25396 -0.740196,-0.48154 -1.117098,-0.68033 -0.188465,-0.0992 -0.378148,-0.19171 -0.56899,-0.27607 -0.190856,-0.0844 -0.382839,-0.16149 -0.576212,-0.2305 -0.193336,-0.069 -0.388071,-0.12992 -0.584065,-0.18269 -0.195998,-0.0528 -0.393349,-0.097 -0.592072,-0.13262 -0.198749,-0.0361 -0.398807,-0.0627 -0.60039,-0.0807 -0.201591,-0.018 -0.404626,-0.0271 -0.609186,-0.0271 -0.135552,0.018 -0.266864,0.0487 -0.393936,0.0871 -0.127071,0.0361 -0.249903,0.0862 -0.368494,0.14209 -0.118591,0.0559 -0.232942,0.12044 -0.343053,0.19306 -0.110111,0.0726 -0.215981,0.15292 -0.317611,0.24043 -0.101631,0.0875 -0.199021,0.1827 -0.29217,0.28464 -0.09315,0.10195 -0.18206,0.21021 -0.266729,0.32479 -0.169429,0.22915 -0.322032,0.48284 -0.457675,0.75616 -0.135642,0.27335 -0.254369,0.5662 -0.356224,0.87402 -0.101901,0.3081 -0.186932,0.63049 -0.255136,0.96326 -0.0682,0.3329 -0.119584,0.67564 -0.154182,1.02365 -0.03473,0.34825 -0.05246,0.70136 -0.05355,1.0551 z"
         id="path869"
         inkscape:connector-curvature="0"
         sodipodi:nodetypes="ccccccccccccccccccsccccccccsccsscscccsscscscscccssccccccsccc" />
      <path
         sodipodi:nodetypes="ccccccccccccccccccsccccccccsccsscscccsscscscscccssccccccsccc"
         inkscape:connector-curvature="0"
         id="path873"
         d="m 102.71418,199.99241 c 18.53826,0.3947 20.45977,14.44187 20.50846,17.32776 -0.41848,13.22317 -12.01976,21.18423 -15.04183,24.15321 5.6223,0.85738 12.25239,-1.54936 18.55387,-3.5784 2.08034,5.04304 1.78939,10.1425 0.16577,15.27373 -6.05296,-1.55919 -12.08577,-3.58264 -18.22255,-3.21378 l 7.55979,43.43523 c -11.08429,-5.29979 -19.186095,-3.35195 -25.021179,-0.48541 l 6.594235,-42.8504 c -4.275603,0.44297 -6.394358,-0.12541 -18.686321,4.07522 -1.645729,-5.48578 -1.230285,-10.57063 0.29799,-15.43923 7.527194,2.37232 13.610337,3.20413 18.48748,2.7497 -7.769239,-7.12237 -13.763545,-10.28331 -16.035773,-23.62277 -0.699544,-5.86388 3.607812,-16.78898 20.840028,-17.82486 z m 0.0723,11.44601 c -0.57731,-0.001 -1.15539,0.0226 -1.7263,0.0767 -0.5709,0.0528 -1.134672,0.13352 -1.683494,0.24088 -0.548826,0.10736 -1.0825,0.24223 -1.593561,0.40418 -0.511056,0.16194 -0.999373,0.35139 -1.45698,0.56755 -0.457607,0.21653 -0.884531,0.45966 -1.272999,0.73032 -0.194239,0.13532 -0.37896,0.27742 -0.552967,0.42628 -0.17403,0.14886 -0.337324,0.30448 -0.489165,0.46687 -0.151837,0.16239 -0.292035,0.33155 -0.419738,0.50734 -0.127658,0.17593 -0.242821,0.35862 -0.344407,0.54812 -0.101585,0.18946 -0.189637,0.38568 -0.263165,0.58858 -0.07353,0.20299 -0.132575,0.41275 -0.17606,0.62904 0.04105,0.43395 0.09978,0.855 0.174527,1.26404 0.0747,0.40914 0.165504,0.80601 0.271375,1.19205 0.10587,0.38613 0.226717,0.76112 0.361322,1.12592 0.134604,0.36493 0.282922,0.7193 0.443826,1.06466 0.160858,0.34553 0.334211,0.68132 0.518887,1.00908 0.184676,0.32794 0.380719,0.64741 0.58679,0.95938 0.206057,0.31215 0.422264,0.61628 0.647267,0.91427 0.225003,0.29771 0.458829,0.58952 0.700301,0.87529 0.482945,0.57157 0.996351,1.12059 1.530526,1.65432 0.53417,0.53368 1.088991,1.05194 1.654801,1.56226 1.131624,1.02067 2.307034,2.00892 3.447714,3.02288 0.68009,-0.55773 1.33638,-1.11934 1.96408,-1.68554 0.62771,-0.56621 1.22672,-1.13679 1.79266,-1.71297 0.56595,-0.57617 1.09875,-1.1579 1.59356,-1.74553 0.49482,-0.58763 0.95171,-1.18126 1.36602,-1.78189 0.41432,-0.60062 0.78587,-1.20801 1.11029,-1.82312 0.16221,-0.30764 0.31274,-0.61718 0.45073,-0.92861 0.13798,-0.3117 0.26357,-0.62485 0.37616,-0.94043 0.11259,-0.31576 0.21201,-0.63337 0.29799,-0.9532 0.086,-0.31982 0.15851,-0.64198 0.21679,-0.96627 0.0582,-0.32433 0.10235,-0.65088 0.13172,-0.9799 0.0293,-0.32885 0.0438,-0.66035 0.0429,-0.9942 -0.032,-0.22103 -0.0795,-0.43575 -0.14223,-0.64289 -0.0627,-0.2075 -0.14042,-0.40779 -0.2319,-0.60139 -0.0915,-0.19352 -0.1969,-0.38027 -0.31518,-0.5599 -0.11832,-0.17953 -0.2494,-0.35275 -0.39258,-0.51839 -0.14317,-0.166 -0.29826,-0.32478 -0.46431,-0.47684 -0.16609,-0.15202 -0.34314,-0.29727 -0.53016,-0.4353 -0.37405,-0.27652 -0.788,-0.52561 -1.23405,-0.74696 -0.44604,-0.22149 -0.9241,-0.415 -1.4265,-0.58141 -0.50239,-0.16645 -1.02898,-0.30493 -1.57203,-0.41635 -0.54305,-0.11142 -1.10267,-0.19533 -1.67068,-0.25171 -0.56803,-0.0564 -1.14464,-0.0857 -1.72195,-0.0875 z"
         style="opacity:0.33300003;fill:#800080;stroke:#00ffff;stroke-width:0.13119507;stroke-linecap:round;stroke-linejoin:round;stroke-miterlimit:4;stroke-dasharray:none;stroke-opacity:1" />
      <path
         sodipodi:nodetypes="ccccccccccccccccccsccccccccsccsscscccsscscscscccssccccccsccc"
         inkscape:connector-curvature="0"
         id="path877"
         d="m 183.83069,246.12374 c -0.24179,-11.359 -8.84897,-12.53634 -10.61724,-12.56616 -8.10225,0.25622 -12.98025,7.36484 -14.79941,9.21656 -0.52536,-3.44497 0.94933,-7.50738 2.19259,-11.3685 -3.09002,-1.27469 -6.21462,-1.09642 -9.35868,-0.1015 0.95535,3.70884 2.19517,7.40533 1.96918,11.16551 l -26.61411,-4.63214 c 1.92209,7.05679 1.05991,10.76198 0.29745,15.33129 l 26.25575,-4.04049 c -0.27133,2.61974 0.0768,3.91802 -2.49703,11.44966 3.36131,1.00837 6.47695,0.75382 9.4601,-0.18269 -1.45359,-4.61215 -1.96327,-8.33945 -1.68483,-11.32783 4.36409,4.76043 6.30092,8.43333 14.47441,9.82557 3.59298,0.42854 10.28711,-2.2106 10.92182,-12.76928 z m -7.01331,-0.0451 c 9.9e-4,0.35365 -0.0149,0.70794 -0.0471,1.05776 -0.0325,0.35004 -0.0817,0.69522 -0.14759,1.0315 -0.0659,0.33606 -0.14837,0.66328 -0.24761,0.97643 -0.0992,0.31306 -0.21521,0.61235 -0.34774,0.89275 -0.13258,0.28058 -0.28166,0.54198 -0.44748,0.78002 -0.0829,0.11909 -0.17006,0.23231 -0.26127,0.33877 -0.0912,0.10646 -0.18657,0.2066 -0.28608,0.29952 -0.0995,0.0929 -0.20308,0.17908 -0.31089,0.25712 -0.10781,0.078 -0.21977,0.14886 -0.33584,0.21111 -0.11606,0.0623 -0.23628,0.11638 -0.36064,0.16104 -0.12437,0.0451 -0.25284,0.0812 -0.38546,0.10781 -0.26587,-0.0271 -0.52388,-0.0614 -0.77451,-0.10691 -0.25062,-0.0456 -0.49387,-0.10149 -0.7304,-0.16645 -0.2365,-0.065 -0.46637,-0.13893 -0.68988,-0.22148 -0.22351,-0.0825 -0.44076,-0.17322 -0.65236,-0.27201 -0.21161,-0.0988 -0.41749,-0.20479 -0.61829,-0.31802 -0.20083,-0.11322 -0.39669,-0.23321 -0.58783,-0.35951 -0.19113,-0.12631 -0.37761,-0.25893 -0.5602,-0.39651 -0.18256,-0.13803 -0.36123,-0.28103 -0.53634,-0.42899 -0.35022,-0.29591 -0.68661,-0.6105 -1.01363,-0.93781 -0.32704,-0.32749 -0.64458,-0.66725 -0.95727,-1.01396 -0.62537,-0.69337 -1.23092,-1.41357 -1.8522,-2.11254 0.34174,-0.4168 0.68586,-0.81881 1.03279,-1.20341 0.34693,-0.38478 0.69655,-0.75165 1.04958,-1.09845 0.35303,-0.34688 0.70947,-0.6732 1.06953,-0.97642 0.36006,-0.30313 0.7238,-0.58312 1.09182,-0.837 0.368,-0.25396 0.7402,-0.48153 1.1171,-0.68028 0.18847,-0.0992 0.37815,-0.19172 0.569,-0.27607 0.19085,-0.0844 0.38284,-0.16149 0.5762,-0.23051 0.19339,-0.069 0.38808,-0.12991 0.58407,-0.18269 0.196,-0.0528 0.39335,-0.097 0.59207,-0.13307 0.19875,-0.0361 0.39881,-0.0627 0.60039,-0.0807 0.20159,-0.0181 0.40463,-0.0271 0.60919,-0.0271 0.1356,0.018 0.26686,0.0487 0.39393,0.0871 0.12708,0.0406 0.24991,0.0862 0.3685,0.14209 0.11859,0.0559 0.23294,0.12044 0.34305,0.19307 0.11011,0.0726 0.21598,0.15292 0.31761,0.24043 0.10163,0.0875 0.19902,0.18269 0.29217,0.28464 0.0932,0.10194 0.18206,0.2102 0.26678,0.32478 0.16943,0.22915 0.32203,0.4828 0.45767,0.75612 0.13564,0.27336 0.25437,0.56625 0.35627,0.87407 0.1019,0.30764 0.18693,0.63049 0.25513,0.96321 0.0682,0.3329 0.11959,0.67564 0.15418,1.0237 0.0347,0.34824 0.0525,0.70135 0.0536,1.0551 z"
         style="opacity:0.33300003;fill:#ff0000;stroke:#00ffff;stroke-width:0.08038724;stroke-linecap:round;stroke-linejoin:round;stroke-miterlimit:4;stroke-dasharray:none;stroke-opacity:1" />
    </g>
    <flowRoot
       xml:space="preserve"
       id="flowRoot884"
       style="font-style:normal;font-weight:normal;font-size:32px;line-height:1;font-family:sans-serif;text-align:justify;letter-spacing:0px;word-spacing:0px;text-anchor:start;fill:#000000;fill-opacity:1;stroke:none"
       transform="matrix(0.26458333,0,0,0.26458333,1.8185121,47.062849)"><flowRegion
         id="flowRegion886"
         style="font-size:32px;line-height:1;text-align:justify;text-anchor:start"><rect
           id="rect888"
           width="613.37927"
           height="1114.5729"
           x="70"
           y="19.662542"
           style="font-size:32px;line-height:1;text-align:justify;text-anchor:start"
           ry="0" /></flowRegion><flowPara
         id="flowPara890" /><flowPara
         id="flowPara892" /><flowPara
         id="flowPara896" /><flowPara
         id="flowPara900" /><flowPara
         style="font-size:32px;line-height:1;text-align:justify;text-anchor:start"
         id="flowPara968">Der Mensch, welcher diesen Ausweis auf sich trägt darf frei reisen, wohin es ihm in Ankh-Morpork beliebt und</flowPara><flowPara
         style="font-size:32px;line-height:1;text-align:justify;text-anchor:start"
         id="flowPara966">darf nicht aufgehalten werden;</flowPara><flowPara
         id="flowPara969"
         style="font-size:32px;line-height:1;text-align:justify;text-anchor:start">darf sein Reisemittel frei wählen;</flowPara><flowPara
         id="flowPara971"><flowSpan
   style="font-size:32px;line-height:1;text-align:justify;text-anchor:start"
   id="flowSpan925">darf sich niederlassen, wo niemand ist und muss sich den lokalen Gepflogenheiten anpassen, wo schon jemand ist</flowSpan>.</flowPara><flowPara
         id="flowPara933" /></flowRoot>    <flowRoot
       xml:space="preserve"
       id="flowRoot983"
       style="font-style:normal;font-weight:normal;font-size:10.66666698px;line-height:1.25;font-family:sans-serif;letter-spacing:0px;word-spacing:0px;fill:#000000;fill-opacity:1;stroke:none"
       transform="matrix(0.26458333,0,0,0.26458333,4.9904269,14.967858)"><flowRegion
         id="flowRegion985"
         style="font-size:10.66666698px"><rect
           id="rect987"
           width="934.28577"
           height="225.71432"
           x="17.142857"
           y="1048.234"
           style="font-size:10.66666698px" /></flowRegion><flowPara
         id="flowPara989">Kugelweltnamen: Ankh-Morpork = Kanton Solothurn | Kreis Liebern-Ikh = Grenchen &amp; Umgebung | &quot;Zentrum&quot; = Solothurn | ??? = Olten</flowPara></flowRoot>    <g
       id="g964"
       transform="matrix(1.1574416,0,0,1.1574416,-16.531368,5.0268317)">
      <flowRoot
         transform="matrix(-0.26458333,0,0,0.26458333,177.66068,12.473214)"
         style="font-style:normal;font-variant:normal;font-weight:normal;font-stretch:normal;font-size:40px;line-height:1.25;font-family:'Amptmann Script';-inkscape-font-specification:'Amptmann Script';letter-spacing:0px;word-spacing:0px;fill:#000000;fill-opacity:1;stroke:none"
         id="flowRoot975"
         xml:space="preserve"><flowRegion
           style="font-style:normal;font-variant:normal;font-weight:normal;font-stretch:normal;font-family:'Amptmann Script';-inkscape-font-specification:'Amptmann Script'"
           id="flowRegion977"><rect
             style="font-style:normal;font-variant:normal;font-weight:normal;font-stretch:normal;font-family:'Amptmann Script';-inkscape-font-specification:'Amptmann Script'"
             y="125.37683"
             x="-42.857143"
             height="155.71428"
             width="1088.5714"
             id="rect979" /></flowRegion><flowPara
           id="flowPara981">Reise &amp; Niederlassungs-Erlaubnis</flowPara></flowRoot>      <g
         transform="translate(7.2162772,6.9490077)"
         id="g915">
        <flowRoot
           xml:space="preserve"
           id="flowRoot885"
           style="font-style:normal;font-variant:normal;font-weight:normal;font-stretch:normal;font-size:85.33333588px;line-height:1.25;font-family:'Dyer Arts and Crafts';-inkscape-font-specification:'Dyer Arts and Crafts';letter-spacing:0px;word-spacing:0px;fill:#800000;fill-opacity:1;stroke:none"
           transform="matrix(0.26458333,0,0,0.26458333,10.129762,-264.8857)"><flowRegion
             id="flowRegion881"
             style="font-style:normal;font-variant:normal;font-weight:normal;font-stretch:normal;font-size:85.33333588px;font-family:'Dyer Arts and Crafts';-inkscape-font-specification:'Dyer Arts and Crafts';fill:#800000"><rect
               id="rect879"
               width="775.71429"
               height="105.71429"
               x="65.714287"
               y="1042.5197"
               style="font-style:normal;font-variant:normal;font-weight:normal;font-stretch:normal;font-size:85.33333588px;font-family:'Dyer Arts and Crafts';-inkscape-font-specification:'Dyer Arts and Crafts';fill:#800000" /></flowRegion><flowPara
             id="flowPara883">Ankh-Morpork</flowPara></flowRoot>        <flowRoot
           transform="matrix(0.26458333,0,0,0.26458333,9.0714286,-264.35653)"
           style="font-style:normal;font-variant:normal;font-weight:normal;font-stretch:normal;font-size:85.33333588px;line-height:1.25;font-family:'Dyer Arts and Crafts';-inkscape-font-specification:'Dyer Arts and Crafts';letter-spacing:0px;word-spacing:0px;fill:#000080;fill-opacity:1;stroke:none"
           id="flowRoot877"
           xml:space="preserve"><flowRegion
             style="font-style:normal;font-variant:normal;font-weight:normal;font-stretch:normal;font-size:85.33333588px;font-family:'Dyer Arts and Crafts';-inkscape-font-specification:'Dyer Arts and Crafts';fill:#000080"
             id="flowRegion873"><rect
               style="font-style:normal;font-variant:normal;font-weight:normal;font-stretch:normal;font-size:85.33333588px;font-family:'Dyer Arts and Crafts';-inkscape-font-specification:'Dyer Arts and Crafts';fill:#000080"
               y="1042.5197"
               x="65.714287"
               height="105.71429"
               width="775.71429"
               id="rect871" /></flowRegion><flowPara
             id="flowPara875">Ankh-Morpork</flowPara></flowRoot>        <flowRoot
           transform="matrix(0.26458333,0,0,0.26458333,7.4839287,-263.29819)"
           style="font-style:normal;font-variant:normal;font-weight:normal;font-stretch:normal;font-size:85.33333588px;line-height:1.25;font-family:'Dyer Arts and Crafts';-inkscape-font-specification:'Dyer Arts and Crafts';letter-spacing:0px;word-spacing:0px;fill:#0000ff;fill-opacity:1;stroke:none"
           id="flowRoot861"
           xml:space="preserve"><flowRegion
             style="font-style:normal;font-variant:normal;font-weight:normal;font-stretch:normal;font-size:85.33333588px;font-family:'Dyer Arts and Crafts';-inkscape-font-specification:'Dyer Arts and Crafts';fill:#0000ff"
             id="flowRegion857"><rect
               style="font-style:normal;font-variant:normal;font-weight:normal;font-stretch:normal;font-size:85.33333588px;font-family:'Dyer Arts and Crafts';-inkscape-font-specification:'Dyer Arts and Crafts';fill:#0000ff"
               y="1042.5197"
               x="65.714287"
               height="105.71429"
               width="775.71429"
               id="rect855" /></flowRegion><flowPara
             id="flowPara859">Ankh-Morpork</flowPara></flowRoot>        <flowRoot
           xml:space="preserve"
           id="flowRoot869"
           style="font-style:normal;font-variant:normal;font-weight:normal;font-stretch:normal;font-size:85.33333588px;line-height:1.25;font-family:'Dyer Arts and Crafts';-inkscape-font-specification:'Dyer Arts and Crafts';letter-spacing:0px;word-spacing:0px;fill:#00ffff;fill-opacity:1;stroke:none"
           transform="matrix(0.26458333,0,0,0.26458333,5.8964286,-262.76902)"><flowRegion
             id="flowRegion865"
             style="font-style:normal;font-variant:normal;font-weight:normal;font-stretch:normal;font-size:85.33333588px;font-family:'Dyer Arts and Crafts';-inkscape-font-specification:'Dyer Arts and Crafts';fill:#00ffff"><rect
               id="rect863"
               width="775.71429"
               height="105.71429"
               x="65.714287"
               y="1042.5197"
               style="font-style:normal;font-variant:normal;font-weight:normal;font-stretch:normal;font-size:85.33333588px;font-family:'Dyer Arts and Crafts';-inkscape-font-specification:'Dyer Arts and Crafts';fill:#00ffff" /></flowRegion><flowPara
             id="flowPara867">Ankh-Morpork</flowPara></flowRoot>        <flowRoot
           transform="matrix(0.26458333,0,0,0.26458333,4.3089283,-262.76902)"
           style="font-style:normal;font-variant:normal;font-weight:normal;font-stretch:normal;font-size:85.33333588px;line-height:1.25;font-family:'Dyer Arts and Crafts';-inkscape-font-specification:'Dyer Arts and Crafts';letter-spacing:0px;word-spacing:0px;fill:#ff0000;fill-opacity:1;stroke:none"
           id="flowRoot893"
           xml:space="preserve"><flowRegion
             style="font-style:normal;font-variant:normal;font-weight:normal;font-stretch:normal;font-size:85.33333588px;font-family:'Dyer Arts and Crafts';-inkscape-font-specification:'Dyer Arts and Crafts';fill:#ff0000"
             id="flowRegion889"><rect
               style="font-style:normal;font-variant:normal;font-weight:normal;font-stretch:normal;font-size:85.33333588px;font-family:'Dyer Arts and Crafts';-inkscape-font-specification:'Dyer Arts and Crafts';fill:#ff0000"
               y="1042.5197"
               x="65.714287"
               height="105.71429"
               width="775.71429"
               id="rect887" /></flowRegion><flowPara
             id="flowPara891">Ankh-Morpork</flowPara></flowRoot>      </g>
    </g>
    <flowRoot
       xml:space="preserve"
       id="flowRoot917"
       style="font-style:normal;font-variant:normal;font-weight:normal;font-stretch:normal;font-size:40px;line-height:1.25;font-family:'Amptmann Script';-inkscape-font-specification:'Amptmann Script';letter-spacing:0px;word-spacing:0px;fill:#000000;fill-opacity:1;stroke:none"
       transform="matrix(0.26458333,0,0,0.26458333,-1.6456855,76.590052)"><flowRegion
         id="flowRegion919"
         style="font-style:normal;font-variant:normal;font-weight:normal;font-stretch:normal;font-family:'Amptmann Script';-inkscape-font-specification:'Amptmann Script'"><rect
           id="rect921"
           width="581.44537"
           height="63.900032"
           x="147.48227"
           y="712.39777"
           style="font-style:normal;font-variant:normal;font-weight:normal;font-stretch:normal;font-family:'Amptmann Script';-inkscape-font-specification:'Amptmann Script'" /></flowRegion><flowPara
         id="flowPara923">Ausgestellt    in    Liebern-Ikh</flowPara></flowRoot>    <flowRoot
       xml:space="preserve"
       id="flowRoot931"
       style="font-style:normal;font-variant:normal;font-weight:normal;font-stretch:normal;font-size:40px;line-height:1.25;font-family:'Dyer Arts and Crafts';-inkscape-font-specification:'Dyer Arts and Crafts';letter-spacing:0px;word-spacing:0px;fill:#ffffff;fill-opacity:1;stroke:none"
       transform="matrix(0.14562666,0,0,0.14562666,36.211092,113.56224)"><flowRegion
         id="flowRegion933"
         style="font-style:normal;font-variant:normal;font-weight:normal;font-stretch:normal;font-family:'Dyer Arts and Crafts';-inkscape-font-specification:'Dyer Arts and Crafts';fill:#ffffff"><rect
           id="rect935"
           width="275.71429"
           height="74.285713"
           x="60.714287"
           y="796.09113"
           style="font-style:normal;font-variant:normal;font-weight:normal;font-stretch:normal;font-family:'Dyer Arts and Crafts';-inkscape-font-specification:'Dyer Arts and Crafts';fill:#ffffff" /></flowRegion><flowPara
         id="flowPara937">LIEBERN-IKH</flowPara></flowRoot>  </g>
</svg>
